<?xml version="1.0" standalone="no"?>
<!DOCTYPE svg PUBLIC "-//W3C//DTD SVG 20010904//EN"
 "http://www.w3.org/TR/2001/REC-SVG-20010904/DTD/svg10.dtd">
<svg version="1.0" xmlns="http://www.w3.org/2000/svg"
 width="832.000000pt" height="832.000000pt" viewBox="0 0 832.000000 832.000000"
 preserveAspectRatio="xMidYMid meet">
<metadata>
Created by potrace 1.14, written by Peter Selinger 2001-2017
</metadata>
<g transform="translate(0.000000,832.000000) scale(0.100000,-0.100000)"
fill="#000000" stroke="none">
<path d="M4099 7285 c-30 -18 -77 -45 -105 -60 -27 -15 -79 -45 -116 -66 -36
-21 -71 -39 -76 -39 -6 0 -12 -4 -14 -8 -1 -5 -30 -23 -62 -41 -33 -18 -141
-79 -240 -135 -100 -57 -199 -114 -221 -126 -22 -12 -69 -39 -105 -60 -36 -21
-82 -47 -102 -59 -90 -50 -116 -65 -158 -89 -25 -14 -53 -32 -62 -40 -10 -8
-18 -12 -18 -9 0 4 -25 -9 -55 -28 -30 -19 -56 -35 -59 -35 -3 0 -43 -22 -90
-50 -47 -27 -89 -50 -95 -50 -6 0 -11 -4 -11 -9 0 -5 -15 -15 -32 -22 -18 -7
-56 -28 -85 -46 -29 -18 -55 -33 -58 -33 -3 0 -22 -11 -43 -24 -20 -13 -266
-154 -547 -314 -280 -159 -526 -299 -545 -311 -19 -11 -46 -25 -59 -31 -13 -6
-35 -19 -50 -29 -14 -10 -51 -31 -81 -48 -51 -28 -77 -42 -162 -92 -134 -77
-369 -210 -450 -255 -20 -12 -91 -52 -158 -91 -68 -38 -148 -84 -179 -102
l-56 -32 0 -791 0 -791 50 -28 c122 -67 432 -244 455 -259 14 -9 27 -17 30
-17 5 -1 118 -65 203 -116 26 -16 49 -29 51 -29 3 0 39 -20 80 -45 42 -25 79
-45 82 -45 3 0 18 -8 32 -19 15 -10 53 -33 84 -49 81 -44 102 -56 108 -62 8
-8 81 -48 112 -62 16 -7 28 -16 28 -20 0 -4 5 -8 11 -8 6 0 37 -15 68 -34 31
-18 76 -45 101 -58 25 -14 77 -44 117 -67 39 -22 89 -50 110 -62 21 -12 52
-30 68 -40 17 -11 37 -22 45 -26 8 -4 35 -19 61 -33 25 -15 65 -38 90 -52 24
-14 61 -35 81 -47 21 -11 54 -30 74 -41 19 -11 67 -38 105 -60 39 -22 75 -40
79 -40 5 0 10 -4 12 -8 3 -7 35 -26 183 -107 28 -15 55 -31 60 -35 18 -14 140
-81 158 -87 9 -3 17 -9 17 -14 0 -5 4 -9 9 -9 5 0 48 -23 96 -50 48 -28 91
-50 96 -50 5 0 9 -4 9 -9 0 -5 8 -11 18 -14 16 -6 51 -25 192 -107 36 -21 88
-50 115 -66 28 -15 64 -35 80 -44 17 -10 102 -59 189 -109 88 -50 163 -91 167
-91 4 0 9 -3 11 -7 2 -5 19 -16 38 -25 19 -10 42 -22 50 -28 21 -13 111 -65
190 -108 36 -19 81 -46 100 -58 l34 -24 86 46 c47 26 92 52 101 60 8 8 19 14
24 14 4 0 40 19 79 41 87 51 129 75 181 102 22 12 42 24 45 27 3 3 16 11 30
17 14 7 48 26 75 43 28 16 56 33 64 37 8 3 58 31 110 61 53 31 110 63 126 72
17 8 50 27 75 42 70 40 410 232 463 262 26 14 68 38 95 52 26 15 90 52 142 82
52 30 115 66 140 79 25 13 52 28 60 33 37 24 336 192 420 236 19 11 37 22 40
25 3 4 34 21 70 40 36 18 76 41 90 50 42 28 299 170 306 169 4 -1 10 2 13 7 5
8 77 51 214 127 109 61 147 82 232 131 50 28 110 63 135 77 56 31 324 182 502
283 73 41 140 79 148 85 8 5 34 19 58 31 l42 23 0 793 c0 675 -2 797 -14 809
-8 8 -17 14 -19 14 -2 0 -49 25 -103 56 -55 31 -119 68 -144 82 -25 14 -62 36
-82 49 -21 12 -40 23 -42 23 -3 0 -66 36 -142 80 -75 44 -142 80 -149 80 -7 0
-15 4 -17 8 -3 7 -38 29 -131 81 -70 39 -209 119 -302 173 -27 16 -62 34 -77
41 -16 6 -28 15 -28 19 0 4 -7 8 -15 8 -8 0 -15 5 -15 10 0 6 -5 10 -11 10 -7
0 -91 46 -188 101 -97 56 -205 118 -241 137 -36 19 -67 38 -70 41 -3 4 -16 12
-30 19 -14 6 -56 30 -95 53 -38 22 -78 43 -87 46 -10 3 -18 9 -18 14 0 5 -4 9
-9 9 -5 0 -95 50 -201 110 -106 61 -196 110 -201 110 -5 0 -9 5 -9 10 0 6 -5
10 -10 10 -6 0 -65 32 -131 70 -66 39 -124 70 -129 70 -6 0 -10 4 -10 8 0 4
-12 13 -27 19 -28 12 -55 27 -171 96 -35 20 -65 37 -68 37 -2 0 -21 11 -42 23
-31 20 -91 54 -177 101 -11 6 -27 16 -35 22 -8 6 -40 25 -70 41 -70 38 -123
68 -233 132 -49 28 -91 51 -94 51 -3 0 -17 8 -31 19 -24 16 -55 33 -177 100
-16 9 -36 22 -43 29 -7 6 -17 12 -22 12 -5 0 -55 27 -112 61 -142 84 -134 82
-199 44z"/>
</g>
</svg>
