<svg width="2667" height="579" viewBox="0 0 2667 579" fill="none" xmlns="http://www.w3.org/2000/svg">
<path d="M453 567V14H349.51V196.49C313.17 166.47 268.14 148.3 218.37 148.3C96.7101 148.3 0.330078 244.68 0.330078 363.18C0.330078 480.89 96.7101 578.06 218.37 578.06C268.14 578.06 313.96 559.89 350.3 529.08V567H453ZM351.09 363.18C351.09 431.91 295.79 488 227.06 488C159.12 488 103.03 431.91 103.03 363.18C103.03 293.66 159.12 239.15 227.06 239.15C295.79 239.15 351.09 293.66 351.09 363.18Z" fill="white"/>
<path d="M485.81 362.39C485.81 487.21 582.19 577.27 707.01 577.27C782.85 577.27 844.47 544.88 885.55 488.79L813.66 435.07C783.64 473.78 749.67 488.79 706.22 488.79C649.34 488.79 605.1 450.08 591.67 397.15H906.88V367.13C906.88 239.94 819.98 149.09 697.53 149.09C576.66 149.09 485.81 248.63 485.81 362.39ZM695.16 237.57C744.93 237.57 787.59 267.59 802.6 318.15H593.25C607.47 268.38 646.97 237.57 695.16 237.57Z" fill="white"/>
<path d="M914.274 247.84H1113.35L910.324 492.74V567H1244.49V477.73H1039.09L1238.96 235.2V158.57H914.274V247.84Z" fill="white"/>
<path d="M1246.15 362.39C1246.15 487.21 1342.53 577.27 1467.35 577.27C1543.19 577.27 1604.81 544.88 1645.89 488.79L1574 435.07C1543.98 473.78 1510.01 488.79 1466.56 488.79C1409.68 488.79 1365.44 450.08 1352.01 397.15H1667.22V367.13C1667.22 239.94 1580.32 149.09 1457.87 149.09C1337 149.09 1246.15 248.63 1246.15 362.39ZM1455.5 237.57C1505.27 237.57 1547.93 267.59 1562.94 318.15H1353.59C1367.81 268.38 1407.31 237.57 1455.5 237.57Z" fill="white"/>
<path d="M2077.94 307.09C2077.94 217.82 2012.37 147.51 1916.78 147.51C1872.54 147.51 1833.04 164.1 1804.6 193.33V158.57H1701.11V567H1804.6V327.63C1804.6 273.12 1840.15 239.94 1889.92 239.94C1940.48 239.94 1974.45 274.7 1974.45 327.63V567H2077.94V307.09Z" fill="white"/>
<path d="M2177.78 115.12C2210.17 115.12 2234.66 89.84 2234.66 57.45C2234.66 25.06 2210.17 0.570007 2177.78 0.570007C2145.39 0.570007 2119.32 25.06 2119.32 57.45C2119.32 89.84 2145.39 115.12 2177.78 115.12ZM2229.13 158.57H2125.64V567H2229.13V158.57Z" fill="white"/>
<path d="M2236.8 567H2350.56L2450.1 430.33L2548.85 567H2666.56L2506.19 355.28L2654.71 158.57H2540.95L2451.68 281.81L2362.41 158.57H2244.7L2395.59 357.65L2236.8 567Z" fill="white"/>
</svg>
