<svg width="60" height="60" viewBox="0 0 60 60" fill="none" xmlns="http://www.w3.org/2000/svg">
<circle cx="30" cy="30" r="29.6515" stroke="#284861" stroke-width="0.697068"/>
<g clip-path="url(#clip0_801_380)">
<path d="M40.4514 46.7614L39.6159 47.7327C39.8593 47.9412 40.1721 48.0509 40.4924 48.0402L40.4514 46.7614ZM37.7195 42.3739C37.5088 42.1071 37.2007 41.935 36.8631 41.8953C36.5254 41.8557 36.1859 41.9518 35.9191 42.1625C35.6523 42.3732 35.4802 42.6812 35.4405 43.0189C35.4009 43.3565 35.497 43.6961 35.7077 43.9628L37.7195 42.3739ZM38.7395 41.3232L38.2935 40.1238C38.2764 40.1295 38.2593 40.1355 38.2423 40.1417L38.7395 41.3232ZM34.2853 42.6456L34.0701 41.3796L34.0496 41.3821L34.2853 42.643V42.6456ZM26.3305 42.6148L26.087 43.8706L26.0947 43.8731L26.3305 42.6148ZM21.8148 41.295L21.3484 42.4867L21.8148 41.2924V41.295ZM19.5724 40.2494L18.8599 41.3129C18.8874 41.3321 18.9156 41.35 18.9445 41.3667L19.5724 40.2494ZM19.2956 40.0956L20.0055 39.0295C19.9611 39.0001 19.9149 38.9736 19.8671 38.95L19.2956 40.0956ZM19.1726 40.0033L20.0773 39.0961C19.9935 39.0126 19.8987 38.941 19.7954 38.8834L19.1726 40.0033ZM24.6928 43.8988C24.9035 43.632 24.9996 43.2924 24.96 42.9548C24.9203 42.6172 24.7482 42.3091 24.4814 42.0984C24.2146 41.8877 23.8751 41.7916 23.5374 41.8313C23.1998 41.8709 22.8918 42.0431 22.6811 42.3098L24.6928 43.8988ZM19.9491 46.7614L19.9081 48.0428C20.2345 48.0532 20.5526 47.9386 20.7974 47.7224L19.9491 46.7614ZM12.2608 40.9874H10.9794C10.979 41.0561 10.9842 41.1246 10.9948 41.1925L12.2608 40.9874ZM16.6841 19.2345L15.9153 18.2094C15.7197 18.3566 15.5703 18.5567 15.4848 18.7861L16.6841 19.2345ZM25.3156 16.008L26.5919 15.8876C26.5624 15.5747 26.419 15.2835 26.1889 15.0695C25.9587 14.8554 25.658 14.7334 25.3438 14.7266L25.3182 16.008H25.3156ZM24.3469 19.355C24.3792 19.6935 24.5446 20.0053 24.8068 20.2218C25.0689 20.4383 25.4064 20.5418 25.7449 20.5095C26.0833 20.4772 26.3951 20.3118 26.6117 20.0496C26.8282 19.7875 26.9317 19.45 26.8994 19.1115L24.3469 19.355ZM33.3832 19.1935C33.3401 19.5307 33.4326 19.8711 33.6405 20.14C33.8483 20.4089 34.1545 20.5843 34.4916 20.6274C34.8288 20.6706 35.1692 20.5781 35.4381 20.3702C35.707 20.1623 35.8824 19.8561 35.9255 19.519L33.3832 19.1935ZM35.0849 16.008L35.0567 14.7266C34.7501 14.7333 34.4561 14.8497 34.228 15.0548C33.9999 15.2598 33.853 15.5398 33.8138 15.844L35.0849 16.008ZM43.7164 19.2345L44.9158 18.7861C44.8303 18.5567 44.6809 18.3566 44.4852 18.2094L43.7164 19.2345ZM48.1397 40.9874L49.4058 41.1925C49.4164 41.1247 49.4215 41.0561 49.4211 40.9874H48.1397ZM27.5888 34.7163L26.3074 34.6958V34.7163H27.5888ZM40.4514 46.7614L41.2869 45.7901L41.2817 45.785C41.243 45.7539 41.2054 45.7214 41.169 45.6876C40.7042 45.2853 40.2463 44.8752 39.7953 44.4575C38.9624 43.6937 38.1039 42.8634 37.7195 42.3739L35.7077 43.9628C36.2407 44.6394 37.253 45.603 38.0603 46.3462C38.5607 46.8059 39.0673 47.2587 39.58 47.7045L39.6057 47.725L39.6134 47.7301L40.4514 46.7614ZM41.5688 38.4426C40.3899 39.2191 39.2776 39.7573 38.2935 40.1238L39.1854 42.5251C40.5191 42.0231 41.7915 41.3714 42.9783 40.5825L41.5688 38.4426ZM38.2448 40.1417C36.9056 40.7144 35.5047 41.1306 34.0701 41.3821L34.5006 43.909C36.128 43.6244 37.7172 43.1531 39.2366 42.5046L38.2448 40.1417ZM34.0496 41.3847C31.5749 41.8398 29.0371 41.8294 26.5662 41.3539L26.0947 43.8731C28.8772 44.4069 31.7348 44.4173 34.5211 43.9039L34.0496 41.3847ZM26.5739 41.3565C25.1078 41.0695 23.6709 40.6492 22.2813 40.1007L21.3484 42.4867C22.6606 42.9992 24.2444 43.5169 26.087 43.8706L26.5739 41.3565ZM22.2813 40.1007C21.5654 39.8259 20.8692 39.5022 20.1977 39.132L18.9445 41.3667C19.78 41.8357 20.6052 42.1971 21.3484 42.4867L22.2813 40.1007ZM20.2823 39.1832C20.1618 39.1012 20.044 39.0449 20.0055 39.0269C19.9543 39.0013 19.9773 39.009 20.0055 39.0295L18.5832 41.1617C18.7062 41.2437 18.8215 41.3001 18.8599 41.318C18.9138 41.3437 18.8907 41.336 18.8599 41.3129L20.2849 39.1858L20.2823 39.1832ZM19.8671 38.95C19.9184 38.9757 19.9696 39.0064 20.0209 39.0474C20.0645 39.0833 20.0978 39.1141 20.0773 39.0987L18.2654 40.9106C18.3243 40.9695 18.473 41.1156 18.7216 41.2437L19.8671 38.95ZM19.7954 38.8834C19.5513 38.7482 19.3119 38.6046 19.0778 38.4529L19.0496 38.4324C19.0487 38.4323 19.0479 38.4323 19.047 38.4324L18.3115 39.4831L17.5786 40.5313L17.5811 40.5338L17.5862 40.539L17.6042 40.5492L17.658 40.5851L17.8502 40.7107C18.0142 40.8132 18.25 40.9567 18.5498 41.1233L19.7954 38.8834ZM22.6811 42.3124C22.2915 42.807 21.4279 43.6579 20.5975 44.437C20.143 44.8619 19.6833 45.2814 19.2187 45.6953L19.1316 45.7747L19.106 45.7952L19.1034 45.8004H19.1008L19.9491 46.7614L20.7974 47.7224L20.8 47.7199L20.8077 47.7147L20.8333 47.6917L20.9255 47.6097C21.4039 47.1804 21.8781 46.7464 22.3479 46.3078C23.1552 45.5492 24.1623 44.5728 24.6928 43.8988L22.6811 42.3098V42.3124ZM19.9901 45.48C17.0019 45.3852 15.4335 44.1448 14.5827 43.0197C14.1094 42.3914 13.7614 41.678 13.5575 40.9183C13.5452 40.8707 13.5341 40.8229 13.5242 40.7747V40.7799L12.2608 40.9849C10.9948 41.1899 10.9948 41.1899 10.9973 41.1925V41.2078C11.0161 41.3174 11.04 41.426 11.0691 41.5333C11.3563 42.6299 11.8552 43.6598 12.5376 44.5651C13.8318 46.2745 16.1075 47.9223 19.9081 48.0428L19.9901 45.48ZM13.5422 40.9874C13.5422 36.2027 14.6185 30.8901 15.7128 26.7281C16.2935 24.5239 16.9568 22.3423 17.7016 20.1879C17.7578 20.0287 17.8151 19.8698 17.8733 19.7112L17.8835 19.6856V19.683L16.6841 19.2345L15.4822 18.7861V18.7886L15.4796 18.7963L15.4694 18.8245C15.4059 18.9947 15.3444 19.1655 15.2849 19.3371C14.517 21.5563 13.8331 23.8038 13.2346 26.0746C12.1147 30.316 10.9794 35.8773 10.9794 40.9874H13.5422ZM17.453 20.2597C19.5032 18.722 21.4945 17.9788 22.963 17.62C23.6861 17.4437 24.4238 17.3339 25.167 17.292C25.2088 17.2904 25.2507 17.2896 25.2925 17.2894H25.29L25.3156 16.008L25.3412 14.7266H25.331C25.3071 14.7262 25.2831 14.7262 25.2592 14.7266H25.0849C24.8796 14.7341 24.6744 14.7477 24.4699 14.7676C23.7573 14.8367 23.0507 14.9574 22.3556 15.129C20.023 15.7083 17.8322 16.7545 15.9153 18.2043L17.453 20.2545V20.2597ZM24.0393 16.1285L24.3469 19.355L26.8994 19.1115L26.5919 15.8876L24.0393 16.1285ZM35.9255 19.519L36.3561 16.172L33.8138 15.844L33.3832 19.1935L35.9255 19.519ZM35.0849 16.008L35.1106 17.2894H35.108C35.1498 17.2873 35.1917 17.2873 35.2336 17.2894C35.331 17.2945 35.4898 17.3022 35.6923 17.3227C36.1023 17.3586 36.702 17.4432 37.4376 17.6226C38.906 17.9813 40.8973 18.722 42.9475 20.2597L44.4852 18.2094C42.5684 16.7595 40.3775 15.7133 38.0449 15.1341C37.3499 14.9617 36.6433 14.84 35.9306 14.7702C35.6435 14.7435 35.3554 14.7289 35.067 14.7266H35.0619H35.0593L35.0849 16.008ZM43.7164 19.2345L42.5144 19.6805L42.517 19.6882L42.5272 19.7112L42.5606 19.806L42.6964 20.1879C43.4419 22.3422 44.1061 24.5239 44.6877 26.7281C45.7845 30.8901 46.8583 36.2027 46.8583 40.9874H49.4211C49.4211 35.8773 48.2833 30.316 47.1659 26.0746C46.5673 23.8038 45.8834 21.5564 45.1157 19.3371C45.0677 19.2018 45.019 19.0668 44.9696 18.9321L44.9311 18.8245L44.9209 18.7989L44.9183 18.7886L43.7138 19.2345H43.7164ZM48.1397 40.9874L46.8763 40.7824V40.7799V40.7773V40.7747L46.8712 40.7952L46.8455 40.9157C46.8148 41.031 46.7687 41.2053 46.6892 41.4206C46.5303 41.8562 46.2612 42.4354 45.8179 43.0197C44.967 44.1448 43.3986 45.3852 40.4104 45.48L40.4924 48.0428C44.293 47.9223 46.5662 46.2745 47.863 44.5677C48.5456 43.6616 49.0444 42.6308 49.3314 41.5333C49.3566 41.4332 49.3788 41.3323 49.3981 41.2309L49.4032 41.2053V41.1976V41.195C49.4032 41.1925 49.4032 41.1899 48.1397 40.9874ZM24.4571 30.0264C21.8892 30.0264 20.0414 32.2484 20.0414 34.7163H22.6042C22.6042 33.4401 23.5191 32.5892 24.4571 32.5892V30.0264ZM20.0414 34.7163C20.0414 37.1945 21.9276 39.4062 24.4571 39.4062V36.8434C23.5422 36.8434 22.6042 35.9875 22.6042 34.7163H20.0414ZM24.4571 39.4062C27.0198 39.4062 28.8702 37.1868 28.8702 34.7163H26.3074C26.3074 35.9977 25.3925 36.8434 24.4571 36.8434V39.4062ZM28.8676 34.7419C28.9086 32.2355 27.0019 30.0264 24.4545 30.0264V32.5918C25.4079 32.5918 26.3253 33.458 26.3048 34.6984L28.8676 34.7419ZM35.6667 30.0264C33.0988 30.029 31.251 32.2509 31.251 34.7189H33.8138C33.8138 33.4426 34.7287 32.5918 35.6667 32.5918V30.029V30.0264ZM31.251 34.7214C31.251 37.1997 33.1372 39.4113 35.6667 39.4113V36.8486C34.7518 36.8486 33.8138 35.9926 33.8138 34.7214H31.251ZM35.6667 39.4113C38.2295 39.4113 40.0798 37.192 40.0798 34.7214H37.517C37.517 36.0028 36.6021 36.8486 35.6667 36.8486V39.4113ZM40.0798 34.7214C40.0798 32.2535 38.232 30.0316 35.6667 30.0316V32.5943C36.6021 32.5943 37.517 33.4452 37.517 34.7214H40.0798ZM20.5642 23.5426C24.2623 21.5257 27.2761 20.5851 30.2079 20.5826C33.1423 20.5826 36.1485 21.518 39.8389 23.54L41.069 21.295C37.1685 19.1551 33.7266 18.0172 30.2079 18.0198C26.6892 18.0198 23.2449 19.1602 19.3392 21.2925L20.5642 23.5426Z" fill="#80ED99"/>
</g>
<defs>
<clipPath id="clip0_801_380">
<rect width="38.4417" height="38.4417" fill="white" transform="translate(10.9795 12.1643)"/>
</clipPath>
</defs>
</svg>
