<svg width="60" height="60" viewBox="0 0 60 60" fill="none" xmlns="http://www.w3.org/2000/svg">
<circle cx="30" cy="30" r="29.6515" stroke="#284861" stroke-width="0.697068"/>
<g clip-path="url(#clip0_801_370)">
<path d="M30.0334 10.5625C24.9357 10.5625 20.0468 12.5875 16.4422 16.1922C12.8375 19.7968 10.8125 24.6857 10.8125 29.7834C10.8125 34.8811 12.8375 39.77 16.4422 43.3746C20.0468 46.9792 24.9357 49.0042 30.0334 49.0042C35.1311 49.0042 40.02 46.9792 43.6246 43.3746C47.2292 39.77 49.2542 34.8811 49.2542 29.7834C49.2542 24.6857 47.2292 19.7968 43.6246 16.1922C40.02 12.5875 35.1311 10.5625 30.0334 10.5625V10.5625ZM35.0997 45.4532H34.9507C34.8388 45.4595 34.7268 45.4429 34.6216 45.4043C34.5164 45.3657 34.4201 45.3061 34.3388 45.2289C34.2637 45.1495 34.2052 45.0559 34.1667 44.9536C34.1282 44.8513 34.1105 44.7423 34.1146 44.6331V42.381C34.1242 41.633 34.1306 40.8754 34.1306 40.113C34.128 39.5555 34.0466 39.0011 33.8888 38.4664C33.7393 37.9259 33.438 37.4395 33.0206 37.0649C34.137 36.9571 35.2345 36.7035 36.285 36.3105C37.1711 35.9735 37.9726 35.4464 38.6331 34.7664C39.285 34.0824 39.7703 33.2559 40.0506 32.3542C40.3916 31.2498 40.5538 30.098 40.5312 28.9425C40.5374 28.1356 40.3963 27.3344 40.1147 26.5783C39.8286 25.8162 39.396 25.1175 38.8413 24.5217C38.9611 24.2211 39.0481 23.9086 39.1008 23.5894C39.1537 23.2691 39.1809 22.9455 39.1809 22.622C39.1809 22.2055 39.1328 21.7891 39.0367 21.3838C38.9494 20.9682 38.8311 20.5597 38.6828 20.1617C38.6261 20.1396 38.5657 20.1288 38.505 20.1297H38.3288C37.9604 20.1329 37.5984 20.1938 37.2492 20.3075C36.8646 20.4198 36.4883 20.5589 36.1232 20.7239C35.7601 20.8867 35.4066 21.0701 35.0644 21.2733C34.7201 21.4767 34.4157 21.6722 34.1466 21.8532C31.4521 21.1021 28.6035 21.1021 25.9089 21.8532C25.6084 21.6523 25.3029 21.4589 24.9927 21.2733C24.6457 21.0684 24.2862 20.8855 23.9163 20.7255C23.5522 20.555 23.1745 20.4152 22.7871 20.3075C22.4448 20.1944 22.0872 20.1344 21.7268 20.1297H21.5506C21.4903 20.1288 21.4305 20.1397 21.3744 20.1617C21.2239 20.5602 21.1008 20.9686 21.006 21.3838C20.9195 21.7907 20.8778 22.2055 20.8762 22.622C20.8762 22.9455 20.9035 23.2691 20.9579 23.5894C21.0108 23.9082 21.0957 24.2205 21.2142 24.5217C20.6609 25.1183 20.23 25.8175 19.9456 26.5799C19.6626 27.3358 19.5198 28.1369 19.5244 28.9441C19.502 30.0934 19.6598 31.2392 19.9921 32.3397C20.282 33.2415 20.7657 34.0696 21.408 34.768C22.0727 35.4439 22.8736 35.9693 23.7562 36.3121C24.8021 36.7125 25.8977 36.9688 27.0125 37.0745C26.7012 37.3566 26.4543 37.7024 26.2885 38.0884C26.1308 38.4701 26.0231 38.8707 25.9682 39.2801C25.3804 39.5615 24.7377 39.7092 24.0861 39.7125C23.481 39.7368 22.8838 39.5685 22.3803 39.232C21.8972 38.8741 21.4882 38.4258 21.1758 37.9122C21.0359 37.6964 20.8796 37.4919 20.708 37.3003C20.5271 37.0989 20.3276 36.915 20.1122 36.7509C19.8999 36.5923 19.6671 36.463 19.4202 36.3665C19.1773 36.26 18.915 36.2049 18.6498 36.2047C18.5857 36.2063 18.5217 36.2127 18.4576 36.2208C18.3701 36.2205 18.2829 36.2312 18.1981 36.2528C18.1236 36.2723 18.0531 36.3048 17.9899 36.3489C17.9612 36.3647 17.9371 36.3879 17.9202 36.416C17.9034 36.4442 17.8942 36.4763 17.8938 36.5091C17.9005 36.5862 17.9241 36.6608 17.9628 36.7278C18.0016 36.7948 18.0546 36.8524 18.118 36.8967C18.267 37.0152 18.3903 37.1065 18.4896 37.1706L18.5377 37.2042C18.7507 37.3692 18.9557 37.547 19.1496 37.7376C19.3289 37.8946 19.4907 38.0724 19.6301 38.2662C19.7742 38.4568 19.8992 38.6602 20.0001 38.8764C20.117 39.0911 20.2403 39.3377 20.3701 39.618C20.6712 40.3773 21.2062 41.0196 21.8981 41.452C22.6237 41.8413 23.4374 42.0351 24.2623 42.0142C24.541 42.0142 24.8213 41.9982 25.0984 41.9662C25.3739 41.9213 25.6478 41.8749 25.9233 41.8204V44.6123C25.9283 44.7248 25.9095 44.8372 25.8681 44.942C25.8267 45.0468 25.7636 45.1417 25.683 45.2204C25.6025 45.2992 25.5062 45.3601 25.4005 45.3991C25.2948 45.4381 25.182 45.4543 25.0696 45.4468H24.9703C21.2351 44.2401 18.0534 41.7395 15.9982 38.3953C13.9431 35.0511 13.1494 31.0829 13.7601 27.2055C14.3709 23.328 16.346 19.796 19.3297 17.2455C22.3134 14.695 26.1097 13.2936 30.035 13.2936C33.9602 13.2936 37.7565 14.695 40.7402 17.2455C43.724 19.796 45.699 23.328 46.3098 27.2055C46.9206 31.0829 46.1269 35.0511 44.0717 38.3953C42.0165 41.7395 38.8349 44.2401 35.0997 45.4468V45.4548V45.4532Z" fill="#80ED99"/>
</g>
<defs>
<clipPath id="clip0_801_370">
<rect width="38.4417" height="38.4417" fill="white" transform="translate(10.8125 10.5625)"/>
</clipPath>
</defs>
</svg>
