<svg width="416" height="316" viewBox="0 0 416 316" fill="none" xmlns="http://www.w3.org/2000/svg">
<path d="M208 0L416 118.582V198.211L208 315.933L0 197.35V118.582L208 0Z" fill="#80ED99"/>
<path fill-rule="evenodd" clip-rule="evenodd" d="M175.275 73.8189L69.5815 134.846L69.5808 134.845L175.275 73.8182V73.8189ZM195.998 207.819V279.649L195.999 279.649V207.819L195.998 207.819ZM195.998 37.8777V109.759L131.803 146.791L131.803 146.792L195.999 109.76V37.8773L195.998 37.8777ZM19.4747 134.846L170.971 222.302V236.305L23.7787 151.335V185.218L200.303 287.103V205.334L78.1904 134.845L170.971 81.274V95.2776L102.468 134.85L131.804 151.76L200.303 112.246V30.4213L19.4747 134.846Z" fill="#083C5D"/>
<path fill-rule="evenodd" clip-rule="evenodd" d="M240.772 243.759V219.816L304.968 182.733L304.967 182.732L240.771 219.816V243.76L240.772 243.759ZM387.964 134.845V158.789L387.965 158.789V134.846L387.964 134.845ZM240.772 73.8185L240.771 73.8182V97.7617L240.772 97.762V73.8185ZM387.964 182.732L220.049 279.649V279.649L387.965 182.733L387.964 182.732ZM396.575 182.733L245.076 95.2767V81.2732L392.269 166.244V132.361L215.745 30.4213V112.245L337.857 182.733L245.076 236.304V222.301L313.565 182.737L284.247 165.763L215.745 205.334V287.103L396.575 182.733Z" fill="#083C5D"/>
</svg>
