<svg width="60" height="60" viewBox="0 0 60 60" fill="none" xmlns="http://www.w3.org/2000/svg">
<circle cx="30" cy="30" r="29.6515" stroke="#284861" stroke-width="0.697068"/>
<path fill-rule="evenodd" clip-rule="evenodd" d="M22.7566 11.9075C24.6354 11.821 25.2345 11.8018 30.0205 11.8018C34.8065 11.8018 35.4055 11.8226 37.2828 11.9075C39.16 11.9924 40.4414 12.2919 41.5626 12.726C42.7367 13.1696 43.8019 13.8632 44.6828 14.7602C45.5798 15.6395 46.2717 16.7031 46.7138 17.8788C47.1495 19 47.4474 20.2814 47.5339 22.1554C47.6204 24.0374 47.6396 24.6365 47.6396 29.4209C47.6396 34.2069 47.6188 34.8059 47.5339 36.6848C47.449 38.5588 47.1495 39.8402 46.7138 40.9614C46.2717 42.1372 45.5786 43.2026 44.6828 44.0832C43.8019 44.9802 42.7367 45.6721 41.5626 46.1142C40.4414 46.5499 39.16 46.8478 37.286 46.9343C35.4055 47.0208 34.8065 47.04 30.0205 47.04C25.2345 47.04 24.6354 47.0192 22.7566 46.9343C20.8826 46.8494 19.6012 46.5499 18.48 46.1142C17.3042 45.6721 16.2388 44.979 15.3582 44.0832C14.4618 43.2033 13.7682 42.1385 13.3256 40.963C12.8915 39.8418 12.5936 38.5604 12.5071 36.6864C12.4206 34.8043 12.4014 34.2053 12.4014 29.4209C12.4014 24.6349 12.4222 24.0358 12.5071 22.1586C12.592 20.2814 12.8915 19 13.3256 17.8788C13.7688 16.7032 14.463 15.6384 15.3598 14.7586C16.2392 13.8624 17.3034 13.1688 18.4784 12.726C19.5996 12.2919 20.881 11.994 22.755 11.9075H22.7566ZM37.1402 15.0789C35.2822 14.994 34.7248 14.9764 30.0205 14.9764C25.3162 14.9764 24.7588 14.994 22.9008 15.0789C21.1821 15.1574 20.2499 15.4441 19.6284 15.686C18.8067 16.0063 18.2189 16.3859 17.6022 17.0026C17.0177 17.5713 16.5678 18.2636 16.2856 19.0288C16.0437 19.6503 15.757 20.5825 15.6785 22.3012C15.5936 24.1592 15.576 24.7166 15.576 29.4209C15.576 34.1252 15.5936 34.6826 15.6785 36.5406C15.757 38.2593 16.0437 39.1915 16.2856 39.813C16.5675 40.577 17.0176 41.2705 17.6022 41.8392C18.1708 42.4238 18.8644 42.8739 19.6284 43.1558C20.2499 43.3977 21.1821 43.6844 22.9008 43.7629C24.7588 43.8477 25.3146 43.8654 30.0205 43.8654C34.7264 43.8654 35.2822 43.8477 37.1402 43.7629C38.8589 43.6844 39.7911 43.3977 40.4126 43.1558C41.2343 42.8354 41.8221 42.4558 42.4388 41.8392C43.0234 41.2705 43.4735 40.577 43.7554 39.813C43.9973 39.1915 44.284 38.2593 44.3625 36.5406C44.4474 34.6826 44.465 34.1252 44.465 29.4209C44.465 24.7166 44.4474 24.1592 44.3625 22.3012C44.284 20.5825 43.9973 19.6503 43.7554 19.0288C43.4351 18.2071 43.0554 17.6193 42.4388 17.0026C41.87 16.4181 41.1777 15.9682 40.4126 15.686C39.7911 15.4441 38.8589 15.1574 37.1402 15.0789ZM27.7701 34.8524C29.0269 35.3756 30.4263 35.4462 31.7294 35.0522C33.0325 34.6581 34.1584 33.8239 34.9148 32.692C35.6712 31.5601 36.0111 30.2007 35.8765 28.846C35.742 27.4913 35.1413 26.2254 34.177 25.2644C33.5623 24.6501 32.8191 24.1797 32.0008 23.8871C31.1825 23.5945 30.3095 23.487 29.4447 23.5723C28.5798 23.6576 27.7447 23.9336 26.9993 24.3804C26.2539 24.8272 25.6169 25.4337 25.1341 26.1563C24.6512 26.8789 24.3346 27.6995 24.207 28.5591C24.0794 29.4187 24.144 30.2959 24.3961 31.1276C24.6481 31.9592 25.0815 32.7246 25.6649 33.3687C26.2483 34.0128 26.9673 34.5195 27.7701 34.8524ZM23.6167 23.0171C24.4577 22.1762 25.456 21.5091 26.5548 21.054C27.6536 20.5989 28.8312 20.3646 30.0205 20.3646C31.2098 20.3646 32.3874 20.5989 33.4862 21.054C34.5849 21.5091 35.5833 22.1762 36.4242 23.0171C37.2652 23.8581 37.9323 24.8564 38.3874 25.9552C38.8425 27.054 39.0768 28.2316 39.0768 29.4209C39.0768 30.6102 38.8425 31.7878 38.3874 32.8866C37.9323 33.9853 37.2652 34.9837 36.4242 35.8246C34.7259 37.523 32.4224 38.4772 30.0205 38.4772C27.6186 38.4772 25.3151 37.523 23.6167 35.8246C21.9184 34.1263 20.9642 31.8228 20.9642 29.4209C20.9642 27.019 21.9184 24.7155 23.6167 23.0171ZM41.0853 21.7133C41.2937 21.5167 41.4605 21.2803 41.5759 21.0181C41.6913 20.7559 41.7529 20.4732 41.7571 20.1867C41.7613 19.9003 41.7079 19.6159 41.6002 19.3504C41.4925 19.085 41.3327 18.8438 41.1301 18.6412C40.9275 18.4387 40.6864 18.2788 40.4209 18.1711C40.1554 18.0634 39.871 18.0101 39.5846 18.0142C39.2981 18.0184 39.0154 18.08 38.7532 18.1954C38.491 18.3108 38.2546 18.4776 38.058 18.686C37.6757 19.0913 37.4664 19.6296 37.4745 20.1867C37.4826 20.7438 37.7075 21.2758 38.1015 21.6698C38.4955 22.0638 39.0275 22.2887 39.5846 22.2968C40.1417 22.305 40.68 22.0956 41.0853 21.7133Z" fill="#80ED99"/>
</svg>
