<svg width="21" height="21" viewBox="0 0 21 21" fill="none" xmlns="http://www.w3.org/2000/svg">
<path d="M16.9654 13.5084C16.3614 13.5112 15.7658 13.6399 15.2226 13.885C14.6793 14.13 14.2022 14.4852 13.8265 14.9243L7.928 11.5007C8.14297 10.8565 8.14297 10.167 7.928 9.52289L13.8265 6.09924C14.4252 6.7875 15.267 7.25682 16.2027 7.42406C17.1384 7.59129 18.1076 7.44565 18.9388 7.01293C19.7699 6.58021 20.4092 5.88835 20.7435 5.05989C21.0778 4.23144 21.0855 3.31987 20.7651 2.48667C20.4448 1.65347 19.8172 0.952415 18.9935 0.507693C18.1698 0.0629706 17.2031 -0.0967132 16.2647 0.0569287C15.3263 0.210571 14.4767 0.667621 13.8665 1.34712C13.2563 2.02661 12.9249 2.88469 12.9309 3.76936C12.9347 4.10436 12.989 4.43723 13.0922 4.75824L7.19371 8.1819C6.67296 7.57327 5.96118 7.13012 5.15702 6.91387C4.35286 6.69762 3.49615 6.71899 2.70566 6.97501C1.91517 7.23104 1.23004 7.70903 0.745244 8.34275C0.260448 8.97646 0 9.73449 0 10.5118C0 11.2891 0.260448 12.0471 0.745244 12.6808C1.23004 13.3145 1.91517 13.7925 2.70566 14.0485C3.49615 14.3046 4.35286 14.3259 5.15702 14.1097C5.96118 13.8934 6.67296 13.4503 7.19371 12.8417L13.0922 16.2653C12.989 16.5863 12.9347 16.9192 12.9309 17.2542C12.9309 17.9951 13.1675 18.7193 13.6108 19.3353C14.0541 19.9512 14.6842 20.4314 15.4215 20.7149C16.1587 20.9984 16.9699 21.0726 17.7525 20.928C18.5352 20.7835 19.2541 20.4267 19.8183 19.9029C20.3825 19.379 20.7668 18.7116 20.9225 17.985C21.0781 17.2584 20.9983 16.5052 20.6929 15.8208C20.3875 15.1363 19.8704 14.5513 19.2069 14.1397C18.5434 13.7281 17.7634 13.5084 16.9654 13.5084V13.5084ZM16.9654 1.52188C17.4442 1.52188 17.9122 1.65369 18.3103 1.90065C18.7084 2.1476 19.0187 2.49861 19.2019 2.90928C19.3851 3.31996 19.4331 3.77185 19.3397 4.20782C19.2463 4.64378 19.0157 5.04425 18.6772 5.35856C18.3386 5.67288 17.9073 5.88693 17.4377 5.97365C16.9681 6.06037 16.4814 6.01586 16.0391 5.84575C15.5967 5.67565 15.2187 5.38758 14.9527 5.01799C14.6867 4.64839 14.5447 4.21386 14.5447 3.76936C14.5447 3.17329 14.7997 2.60163 15.2537 2.18015C15.7077 1.75867 16.3234 1.52188 16.9654 1.52188V1.52188ZM4.05481 12.7593C3.57603 12.7593 3.10801 12.6274 2.70992 12.3805C2.31183 12.1335 2.00156 11.7825 1.81834 11.3719C1.63512 10.9612 1.58718 10.5093 1.68058 10.0733C1.77399 9.63735 2.00454 9.23689 2.34309 8.92258C2.68164 8.60826 3.11297 8.39421 3.58255 8.30749C4.05213 8.22077 4.53886 8.26528 4.98119 8.43538C5.42352 8.60549 5.80159 8.89356 6.06758 9.26315C6.33358 9.63275 6.47555 10.0673 6.47555 10.5118C6.47555 11.1078 6.22051 11.6795 5.76653 12.101C5.31256 12.5225 4.69683 12.7593 4.05481 12.7593ZM16.9654 19.5017C16.4867 19.5017 16.0186 19.3699 15.6205 19.1229C15.2224 18.876 14.9122 18.525 14.729 18.1143C14.5457 17.7036 14.4978 17.2517 14.5912 16.8157C14.6846 16.3798 14.9152 15.9793 15.2537 15.665C15.5923 15.3507 16.0236 15.1366 16.4932 15.0499C16.9627 14.9632 17.4495 15.0077 17.8918 15.1778C18.3341 15.3479 18.7122 15.636 18.9782 16.0056C19.2442 16.3752 19.3862 16.8097 19.3862 17.2542C19.3862 17.8503 19.1311 18.4219 18.6772 18.8434C18.2232 19.2649 17.6074 19.5017 16.9654 19.5017V19.5017Z" fill="#80ED99"/>
</svg>
