<svg width="80" height="80" viewBox="0 0 80 80" fill="none" xmlns="http://www.w3.org/2000/svg">
<rect x="0.5" y="0.5" width="79" height="79" rx="7.5" stroke="#80ED99"/>
<path d="M26.804 62.844C26.72 60.058 22.366 60.926 22.366 59.372C22.366 58.854 22.814 58.504 23.668 58.504C24.536 58.504 25.054 58.966 25.11 59.638H26.706C26.622 58.098 25.474 57.16 23.724 57.16C21.904 57.16 20.756 58.154 20.756 59.386C20.756 62.214 25.236 61.346 25.236 62.858C25.236 63.39 24.746 63.782 23.822 63.782C22.94 63.782 22.338 63.264 22.282 62.634H20.63C20.7 64.034 22.002 65.126 23.85 65.126C25.67 65.126 26.804 64.146 26.804 62.844ZM28.5285 65H30.1245V60.688C30.1245 59.274 30.8945 58.546 32.0705 58.546C33.2325 58.546 34.0025 59.274 34.0025 60.688V65H35.5845V60.45C35.5845 58.294 34.2405 57.16 32.5185 57.16C31.5245 57.16 30.6565 57.538 30.1245 58.182V54.64H28.5285V65ZM37.0883 61.108C37.0883 63.488 38.6983 65.126 40.7003 65.126C41.9883 65.126 42.9123 64.51 43.4023 63.852V65H45.0123V57.286H43.4023V58.406C42.9263 57.776 42.0303 57.16 40.7283 57.16C38.6983 57.16 37.0883 58.728 37.0883 61.108ZM43.4023 61.136C43.4023 62.802 42.2683 63.74 41.0643 63.74C39.8743 63.74 38.7263 62.774 38.7263 61.108C38.7263 59.442 39.8743 58.546 41.0643 58.546C42.2683 58.546 43.4023 59.484 43.4023 61.136ZM48.7046 60.94C48.7046 59.302 49.4326 58.812 50.6086 58.812H51.0146V57.16C49.9226 57.16 49.1526 57.636 48.7046 58.406V57.286H47.1086V65H48.7046V60.94ZM55.7296 58.504C56.9196 58.504 57.8576 59.26 57.8856 60.45H53.6156C53.7836 59.232 54.6516 58.504 55.7296 58.504ZM59.3416 62.704H57.6196C57.3256 63.306 56.7796 63.782 55.7996 63.782C54.6236 63.782 53.7136 63.012 53.6016 61.738H59.4956C59.5376 61.472 59.5516 61.22 59.5516 60.954C59.5516 58.686 57.9976 57.16 55.7996 57.16C53.5176 57.16 51.9496 58.714 51.9496 61.136C51.9496 63.558 53.5876 65.126 55.7996 65.126C57.6896 65.126 58.9076 64.048 59.3416 62.704Z" fill="#80ED99"/>
<path d="M43.9654 32.5084C43.3614 32.5112 42.7658 32.6399 42.2226 32.885C41.6793 33.13 41.2022 33.4852 40.8265 33.9243L34.928 30.5007C35.143 29.8565 35.143 29.167 34.928 28.5229L40.8265 25.0992C41.4252 25.7875 42.267 26.2568 43.2027 26.4241C44.1384 26.5913 45.1076 26.4457 45.9388 26.0129C46.7699 25.5802 47.4092 24.8883 47.7435 24.0599C48.0778 23.2314 48.0855 22.3199 47.7651 21.4867C47.4448 20.6535 46.8172 19.9524 45.9935 19.5077C45.1698 19.063 44.2031 18.9033 43.2647 19.0569C42.3263 19.2106 41.4767 19.6676 40.8665 20.3471C40.2563 21.0266 39.9249 21.8847 39.9309 22.7694C39.9347 23.1044 39.989 23.4372 40.0922 23.7582L34.1937 27.1819C33.673 26.5733 32.9612 26.1301 32.157 25.9139C31.3529 25.6976 30.4962 25.719 29.7057 25.975C28.9152 26.231 28.23 26.709 27.7452 27.3427C27.2604 27.9765 27 28.7345 27 29.5118C27 30.2891 27.2604 31.0471 27.7452 31.6808C28.23 32.3145 28.9152 32.7925 29.7057 33.0485C30.4962 33.3046 31.3529 33.3259 32.157 33.1097C32.9612 32.8934 33.673 32.4503 34.1937 31.8417L40.0922 35.2653C39.989 35.5863 39.9347 35.9192 39.9309 36.2542C39.9309 36.9951 40.1675 37.7193 40.6108 38.3353C41.0541 38.9513 41.6842 39.4314 42.4215 39.7149C43.1587 39.9984 43.9699 40.0726 44.7525 39.928C45.5352 39.7835 46.2541 39.4267 46.8183 38.9029C47.3825 38.379 47.7668 37.7116 47.9225 36.985C48.0781 36.2584 47.9983 35.5052 47.6929 34.8208C47.3875 34.1363 46.8704 33.5513 46.2069 33.1397C45.5434 32.7281 44.7634 32.5084 43.9654 32.5084ZM43.9654 20.5219C44.4442 20.5219 44.9122 20.6537 45.3103 20.9006C45.7084 21.1476 46.0187 21.4986 46.2019 21.9093C46.3851 22.32 46.4331 22.7718 46.3397 23.2078C46.2463 23.6438 46.0157 24.0442 45.6772 24.3586C45.3386 24.6729 44.9073 24.8869 44.4377 24.9736C43.9681 25.0604 43.4814 25.0159 43.0391 24.8458C42.5967 24.6756 42.2186 24.3876 41.9527 24.018C41.6867 23.6484 41.5447 23.2139 41.5447 22.7694C41.5447 22.1733 41.7997 21.6016 42.2537 21.1802C42.7077 20.7587 43.3234 20.5219 43.9654 20.5219ZM31.0548 31.7593C30.576 31.7593 30.108 31.6274 29.7099 31.3805C29.3118 31.1335 29.0016 30.7825 28.8183 30.3719C28.6351 29.9612 28.5872 29.5093 28.6806 29.0733C28.774 28.6374 29.0045 28.2369 29.3431 27.9226C29.6816 27.6083 30.113 27.3942 30.5825 27.3075C31.0521 27.2208 31.5389 27.2653 31.9812 27.4354C32.4235 27.6055 32.8016 27.8936 33.0676 28.2632C33.3336 28.6327 33.4756 29.0673 33.4756 29.5118C33.4756 30.1078 33.2205 30.6795 32.7665 31.101C32.3126 31.5225 31.6968 31.7593 31.0548 31.7593ZM43.9654 38.5017C43.4867 38.5017 43.0186 38.3699 42.6205 38.1229C42.2224 37.876 41.9122 37.525 41.729 37.1143C41.5457 36.7036 41.4978 36.2517 41.5912 35.8157C41.6846 35.3798 41.9152 34.9793 42.2537 34.665C42.5923 34.3507 43.0236 34.1366 43.4932 34.0499C43.9627 33.9632 44.4495 34.0077 44.8918 34.1778C45.3341 34.3479 45.7122 34.636 45.9782 35.0056C46.2442 35.3752 46.3862 35.8097 46.3862 36.2542C46.3862 36.8503 46.1311 37.4219 45.6772 37.8434C45.2232 38.2649 44.6074 38.5017 43.9654 38.5017Z" fill="#80ED99"/>
</svg>
