<svg width="60" height="60" viewBox="0 0 60 60" fill="none" xmlns="http://www.w3.org/2000/svg">
<circle cx="30" cy="30" r="29.6515" stroke="#284861" stroke-width="0.697068"/>
<path d="M15.1507 40.8049C16.6956 41.6594 27.8773 48.1048 35.8291 43.137C43.7802 38.1692 43.3413 29.6104 43.3413 25.6877C44.0621 24.1789 45.5837 23.4116 45.5837 19.3272C44.0893 20.7079 42.6037 21.1772 41.1269 20.7367C39.6805 18.5311 37.6904 17.5549 35.1556 17.8095C31.3547 18.1916 29.9644 21.9204 30.3736 26.7456C24.5129 29.7089 19.9175 24.5969 17.5485 20.7367C16.7572 23.7768 15.9948 27.4272 17.5485 31.4644C18.5848 34.1569 21.0763 36.4322 25.0214 38.2926C21.0227 40.4589 17.7327 41.2974 15.1507 40.8049Z" stroke="#80ED99" stroke-width="2.7913" stroke-linejoin="round"/>
</svg>
