<svg width="80" height="80" viewBox="0 0 80 80" fill="none" xmlns="http://www.w3.org/2000/svg">
<rect width="80" height="80" rx="8" fill="#80ED99"/>
<path d="M40.9546 17.4162C40.4889 16.8613 39.5111 16.8613 39.0454 17.4162L29.2668 29.0983C29.1234 29.2703 29.0336 29.4774 29.0077 29.696C28.9819 29.9145 29.0211 30.1356 29.1208 30.3338C29.2204 30.532 29.3766 30.6994 29.5713 30.8166C29.766 30.9339 29.9913 30.9963 30.2215 30.9966H35.1107V39.1741C35.1107 39.4839 35.2395 39.7811 35.4687 40.0002C35.698 40.2192 36.0089 40.3423 36.333 40.3423H43.667C43.9911 40.3423 44.302 40.2192 44.5313 40.0002C44.7605 39.7811 44.8893 39.4839 44.8893 39.1741V30.9966H49.7785C50.0087 30.9963 50.234 30.9339 50.4287 30.8166C50.6234 30.6994 50.7796 30.532 50.8792 30.3338C50.9789 30.1356 51.0181 29.9145 50.9923 29.696C50.9664 29.4774 50.8766 29.2703 50.7332 29.0983L40.9546 17.4162ZM43.667 28.6602H42.4446V38.0059H37.5554V28.6602H32.7651L40 20.0166L47.2349 28.6602H43.667Z" fill="#083C5D"/>
<path d="M16.036 61.444C16.036 63.922 17.772 65.098 19.816 65.098C21.846 65.098 23.638 63.922 23.638 61.444V55.27H22.042V61.472C22.042 62.984 21.188 63.698 19.83 63.698C18.486 63.698 17.632 62.984 17.632 61.472V55.27H16.036V61.444ZM27.312 58.42V57.286H25.716V68.668H27.312V63.88C27.816 64.482 28.726 65.126 30 65.126C32.03 65.126 33.626 63.488 33.626 61.108C33.626 58.728 32.03 57.16 30 57.16C28.74 57.16 27.802 57.776 27.312 58.42ZM32.002 61.108C32.002 62.774 30.854 63.74 29.65 63.74C28.46 63.74 27.312 62.802 27.312 61.136C27.312 59.484 28.46 58.546 29.65 58.546C30.854 58.546 32.002 59.442 32.002 61.108ZM34.2943 57.286L37.2203 65H39.1243L42.0643 57.286H40.3703L38.1863 63.572L36.0023 57.286H34.2943ZM50.6207 61.136C50.6207 58.714 48.8847 57.16 46.6867 57.16C44.4887 57.16 42.7527 58.714 42.7527 61.136C42.7527 63.558 44.4187 65.126 46.6167 65.126C48.8287 65.126 50.6207 63.558 50.6207 61.136ZM44.3767 61.136C44.3767 59.386 45.4547 58.546 46.6587 58.546C47.8487 58.546 48.9827 59.386 48.9827 61.136C48.9827 62.886 47.8067 63.74 46.6167 63.74C45.4127 63.74 44.3767 62.886 44.3767 61.136ZM52.4504 62.858C52.4504 64.426 53.3044 65 54.6764 65H55.9364V63.67H54.9564C54.2844 63.67 54.0604 63.432 54.0604 62.858V58.588H55.9364V57.286H54.0604V55.368H52.4504V57.286H51.5404V58.588H52.4504V62.858ZM60.6554 58.504C61.8454 58.504 62.7834 59.26 62.8114 60.45H58.5414C58.7094 59.232 59.5774 58.504 60.6554 58.504ZM64.2674 62.704H62.5454C62.2514 63.306 61.7054 63.782 60.7254 63.782C59.5494 63.782 58.6394 63.012 58.5274 61.738H64.4214C64.4634 61.472 64.4774 61.22 64.4774 60.954C64.4774 58.686 62.9234 57.16 60.7254 57.16C58.4434 57.16 56.8754 58.714 56.8754 61.136C56.8754 63.558 58.5134 65.126 60.7254 65.126C62.6154 65.126 63.8334 64.048 64.2674 62.704Z" fill="#083C5D"/>
</svg>
