<svg width="22" height="24" viewBox="0 0 22 24" fill="none" xmlns="http://www.w3.org/2000/svg">
<path d="M11.9546 0.427901C11.4889 -0.142634 10.5111 -0.142634 10.0454 0.427901L0.26683 12.4392C0.123377 12.616 0.0335758 12.829 0.00773765 13.0537C-0.0181005 13.2784 0.0210717 13.5057 0.120756 13.7095C0.220441 13.9133 0.376596 14.0854 0.571294 14.2059C0.765992 14.3265 0.991338 14.3906 1.22146 14.391H6.11073V22.7989C6.11073 23.1174 6.23951 23.4229 6.46874 23.6482C6.69797 23.8735 7.00887 24 7.33305 24H14.667C14.9911 24 15.302 23.8735 15.5313 23.6482C15.7605 23.4229 15.8893 23.1174 15.8893 22.7989V14.391H20.7785C21.0087 14.3906 21.234 14.3265 21.4287 14.2059C21.6234 14.0854 21.7796 13.9133 21.8792 13.7095C21.9789 13.5057 22.0181 13.2784 21.9923 13.0537C21.9664 12.829 21.8766 12.616 21.7332 12.4392L11.9546 0.427901ZM14.667 11.9887H13.4446V21.5977H8.55536V11.9887H3.7651L11 3.10161L18.2349 11.9887H14.667Z" fill="#083C5D"/>
</svg>
