<svg width="23" height="22" viewBox="0 0 23 22" fill="none" xmlns="http://www.w3.org/2000/svg">
<path d="M13.1537 17.7634C16.9247 17.7634 18.8107 17.7634 19.9817 16.5914C21.1537 15.4204 21.1537 13.5344 21.1537 9.76337C21.1537 5.99237 21.1537 4.10637 19.9817 2.93537C18.8107 1.76337 16.9247 1.76337 13.1537 1.76337H9.15369C5.38269 1.76337 3.49669 1.76337 2.32569 2.93537C1.15369 4.10637 1.15369 5.99237 1.15369 9.76337C1.15369 13.5344 1.15369 15.4204 2.32569 16.5914C2.97869 17.2454 3.85369 17.5344 5.15369 17.6614" stroke="white" stroke-width="2" stroke-linecap="round" stroke-linejoin="round"/>
<path d="M13.1537 17.7634C11.9177 17.7634 10.5557 18.2634 9.31268 18.9084C7.31468 19.9454 6.31568 20.4644 5.82368 20.1334C5.33168 19.8034 5.42468 18.7784 5.61168 16.7294L5.65368 16.2634" stroke="white" stroke-width="2" stroke-linecap="round"/>
</svg>
