<svg width="96" height="96" viewBox="0 0 96 96" fill="none" xmlns="http://www.w3.org/2000/svg">
<g filter="url(#filter0_d_702_245)">
<circle cx="48.0873" cy="47.7821" r="29.6515" stroke="#083C5D" stroke-width="0.697068" shape-rendering="crispEdges"/>
</g>
<path d="M48.0873 28.5614C42.9896 28.5614 38.1007 30.5865 34.4961 34.1911C30.8914 37.7957 28.8664 42.6846 28.8664 47.7823C28.8664 52.88 30.8914 57.7689 34.4961 61.3735C38.1007 64.9781 42.9896 67.0031 48.0873 67.0031C53.185 67.0031 58.0739 64.9781 61.6785 61.3735C65.2831 57.7689 67.3081 52.88 67.3081 47.7823C67.3081 42.6846 65.2831 37.7957 61.6785 34.1911C58.0739 30.5865 53.185 28.5614 48.0873 28.5614ZM53.1536 63.4521H53.0046C52.8927 63.4584 52.7807 63.4418 52.6755 63.4032C52.5703 63.3646 52.474 63.305 52.3927 63.2278C52.3176 63.1484 52.2591 63.0548 52.2206 62.9525C52.1821 62.8502 52.1644 62.7412 52.1685 62.632V60.3799C52.1781 59.6319 52.1845 58.8743 52.1845 58.1119C52.1819 57.5544 52.1005 57 51.9426 56.4653C51.7931 55.9248 51.4919 55.4384 51.0745 55.0638C52.1909 54.956 53.2884 54.7024 54.3389 54.3094C55.225 53.9724 56.0265 53.4453 56.687 52.7653C57.3389 52.0813 57.8242 51.2548 58.1045 50.3531C58.4455 49.2487 58.6077 48.0969 58.5851 46.9414C58.5913 46.1345 58.4502 45.3333 58.1686 44.5772C57.8825 43.8151 57.4499 43.1164 56.8952 42.5206C57.015 42.22 57.102 41.9075 57.1547 41.5883C57.2076 41.268 57.2348 40.9444 57.2348 40.6209C57.2348 40.2044 57.1867 39.788 57.0906 39.3828C57.0033 38.9671 56.885 38.5586 56.7367 38.1606C56.68 38.1385 56.6196 38.1277 56.5589 38.1286H56.3827C56.0143 38.1318 55.6523 38.1927 55.3031 38.3064C54.9185 38.4187 54.5422 38.5578 54.1771 38.7228C53.814 38.8856 53.4605 39.069 53.1183 39.2722C52.774 39.4757 52.4696 39.6711 52.2005 39.8521C49.506 39.1011 46.6573 39.1011 43.9628 39.8521C43.6623 39.6512 43.3568 39.4578 43.0466 39.2722C42.6996 39.0673 42.3401 38.8844 41.9702 38.7244C41.6061 38.5539 41.2284 38.4141 40.841 38.3064C40.4987 38.1933 40.1411 38.1333 39.7806 38.1286H39.6045C39.5442 38.1277 39.4844 38.1386 39.4283 38.1606C39.2778 38.5591 39.1547 38.9675 39.0599 39.3828C38.9734 39.7896 38.9317 40.2044 38.9301 40.6209C38.9301 40.9444 38.9574 41.268 39.0118 41.5883C39.0647 41.9071 39.1496 42.2194 39.2681 42.5206C38.7148 43.1172 38.2839 43.8164 37.9995 44.5788C37.7165 45.3347 37.5737 46.1358 37.5783 46.943C37.5558 48.0923 37.7137 49.2381 38.046 50.3386C38.3359 51.2404 38.8196 52.0685 39.4619 52.7669C40.1266 53.4428 40.9275 53.9682 41.81 54.311C42.856 54.7114 43.9516 54.9677 45.0664 55.0734C44.7551 55.3555 44.5082 55.7013 44.3424 56.0873C44.1847 56.469 44.077 56.8696 44.022 57.279C43.4343 57.5604 42.7916 57.7081 42.14 57.7114C41.5349 57.7357 40.9377 57.5674 40.4342 57.2309C39.9511 56.873 39.5421 56.4247 39.2296 55.9111C39.0898 55.6953 38.9334 55.4908 38.7619 55.2992C38.581 55.0978 38.3815 54.9139 38.1661 54.7498C37.9538 54.5912 37.721 54.4619 37.4741 54.3654C37.2312 54.2589 36.9689 54.2038 36.7037 54.2036C36.6396 54.2052 36.5756 54.2116 36.5115 54.2197C36.424 54.2194 36.3368 54.2301 36.252 54.2517C36.1775 54.2712 36.107 54.3037 36.0438 54.3478C36.0151 54.3636 35.991 54.3868 35.9741 54.4149C35.9573 54.4431 35.9481 54.4752 35.9477 54.508C35.9544 54.5851 35.978 54.6597 36.0167 54.7267C36.0555 54.7937 36.1085 54.8513 36.1719 54.8956C36.3209 55.0141 36.4442 55.1054 36.5435 55.1695L36.5916 55.2031C36.8046 55.3681 37.0096 55.5459 37.2034 55.7365C37.3828 55.8935 37.5446 56.0713 37.684 56.2651C37.8281 56.4557 37.9531 56.6591 38.054 56.8753C38.1709 57.09 38.2942 57.3366 38.424 57.6169C38.7251 58.3762 39.2601 59.0185 39.952 59.4509C40.6776 59.8402 41.4913 60.034 42.3162 60.0131C42.5949 60.0131 42.8752 59.9971 43.1523 59.9651C43.4278 59.9203 43.7017 59.8738 43.9772 59.8193V62.6112C43.9822 62.7237 43.9634 62.8361 43.922 62.9409C43.8806 63.0457 43.8175 63.1406 43.7369 63.2193C43.6564 63.2981 43.5601 63.359 43.4544 63.398C43.3486 63.437 43.2359 63.4532 43.1235 63.4457H43.0242C39.289 62.239 36.1073 59.7384 34.0521 56.3942C31.9969 53.05 31.2033 49.0818 31.814 45.2044C32.4248 41.3269 34.3999 37.7949 37.3836 35.2444C40.3673 32.6939 44.1636 31.2925 48.0889 31.2925C52.0141 31.2925 55.8104 32.6939 58.7941 35.2444C61.7778 37.7949 63.7529 41.3269 64.3637 45.2044C64.9745 49.0818 64.1808 53.05 62.1256 56.3942C60.0704 59.7384 56.8888 62.239 53.1536 63.4457V63.4537V63.4521Z" fill="#083C5D"/>
<defs>
<filter id="filter0_d_702_245" x="0.312036" y="0.00686017" width="95.5505" height="95.5506" filterUnits="userSpaceOnUse" color-interpolation-filters="sRGB">
<feFlood flood-opacity="0" result="BackgroundImageFix"/>
<feColorMatrix in="SourceAlpha" type="matrix" values="0 0 0 0 0 0 0 0 0 0 0 0 0 0 0 0 0 0 127 0" result="hardAlpha"/>
<feMorphology radius="0.348534" operator="dilate" in="SourceAlpha" result="effect1_dropShadow_702_245"/>
<feOffset/>
<feGaussianBlur stdDeviation="8.71336"/>
<feComposite in2="hardAlpha" operator="out"/>
<feColorMatrix type="matrix" values="0 0 0 0 0.829167 0 0 0 0 0.784167 0 0 0 0 0.0829167 0 0 0 1 0"/>
<feBlend mode="normal" in2="BackgroundImageFix" result="effect1_dropShadow_702_245"/>
<feBlend mode="normal" in="SourceGraphic" in2="effect1_dropShadow_702_245" result="shape"/>
</filter>
</defs>
</svg>
