<svg width="60" height="60" viewBox="0 0 60 60" fill="none" xmlns="http://www.w3.org/2000/svg">
<circle cx="30" cy="30" r="29.6515" stroke="#083C5D" stroke-width="0.697068"/>
<path d="M19.6788 20.4887C21.6143 20.4887 23.1834 18.9196 23.1834 16.9841C23.1834 15.0486 21.6143 13.4795 19.6788 13.4795C17.7432 13.4795 16.1742 15.0486 16.1742 16.9841C16.1742 18.9196 17.7432 20.4887 19.6788 20.4887Z" fill="#083C5D"/>
<path d="M26.4927 23.1441V42.5876H32.5296V32.9724C32.5296 30.4352 33.0069 27.9781 36.1528 27.9781C39.2553 27.9781 39.2938 30.8789 39.2938 33.1325V42.5892H45.3339V31.9264C45.3339 26.6887 44.2063 22.6636 38.0845 22.6636C35.1453 22.6636 33.1751 24.2765 32.3694 25.803H32.2878V23.1441H26.4927V23.1441ZM16.6548 23.1441H22.7014V42.5876H16.6548V23.1441Z" fill="#083C5D"/>
</svg>
