<svg width="303" height="58" viewBox="0 0 303 58" fill="none" xmlns="http://www.w3.org/2000/svg">
<path d="M127.876 49.3753V5.62504H119.688V20.0626C116.813 17.6876 113.251 16.2501 109.313 16.2501C99.6882 16.2501 92.0631 23.8752 92.0631 33.2502C92.0631 42.5628 99.6882 50.2503 109.313 50.2503C113.251 50.2503 116.876 48.8128 119.751 46.3753V49.3753H127.876ZM119.813 33.2502C119.813 38.6878 115.438 43.1253 110.001 43.1253C104.626 43.1253 100.188 38.6878 100.188 33.2502C100.188 27.7502 104.626 23.4377 110.001 23.4377C115.438 23.4377 119.813 27.7502 119.813 33.2502Z" fill="#083C5D"/>
<path d="M130.472 33.1877C130.472 43.0628 138.097 50.1878 147.972 50.1878C153.972 50.1878 158.847 47.6253 162.097 43.1878L156.409 38.9378C154.034 42.0003 151.347 43.1878 147.909 43.1878C143.409 43.1878 139.909 40.1253 138.847 35.9377H163.784V33.5627C163.784 23.5002 156.909 16.3126 147.222 16.3126C137.659 16.3126 130.472 24.1877 130.472 33.1877ZM147.034 23.3127C150.972 23.3127 154.347 25.6877 155.534 29.6877H138.972C140.097 25.7502 143.222 23.3127 147.034 23.3127Z" fill="#083C5D"/>
<path d="M164.369 24.1252H180.119L164.057 43.5003V49.3753H190.494V42.3128H174.244L190.057 23.1252V17.0626H164.369V24.1252Z" fill="#083C5D"/>
<path d="M190.626 33.1877C190.626 43.0628 198.251 50.1878 208.126 50.1878C214.126 50.1878 219.001 47.6253 222.251 43.1878L216.563 38.9378C214.188 42.0003 211.501 43.1878 208.063 43.1878C203.563 43.1878 200.063 40.1253 199.001 35.9377H223.938V33.5627C223.938 23.5002 217.063 16.3126 207.376 16.3126C197.813 16.3126 190.626 24.1877 190.626 33.1877ZM207.188 23.3127C211.126 23.3127 214.501 25.6877 215.688 29.6877H199.126C200.251 25.7502 203.376 23.3127 207.188 23.3127Z" fill="#083C5D"/>
<path d="M256.432 28.8127C256.432 21.7501 251.244 16.1876 243.682 16.1876C240.182 16.1876 237.057 17.5001 234.807 19.8126V17.0626H226.619V49.3753H234.807V30.4377C234.807 26.1252 237.619 23.5002 241.557 23.5002C245.557 23.5002 248.244 26.2502 248.244 30.4377V49.3753H256.432V28.8127Z" fill="#083C5D"/>
<path d="M264.331 13.6251C266.893 13.6251 268.831 11.6251 268.831 9.06256C268.831 6.50004 266.893 4.56253 264.331 4.56253C261.768 4.56253 259.706 6.50004 259.706 9.06256C259.706 11.6251 261.768 13.6251 264.331 13.6251ZM268.393 17.0626H260.206V49.3753H268.393V17.0626Z" fill="#083C5D"/>
<path d="M269 49.3753H278L285.875 38.5627L293.687 49.3753H303L290.312 32.6252L302.063 17.0626H293.062L286 26.8127L278.937 17.0626H269.625L281.562 32.8127L269 49.3753Z" fill="#083C5D"/>
<path d="M37.8127 0L75.6255 21.5573V36.0332L37.8127 57.434L0 35.8767V21.5573L37.8127 0Z" fill="#80ED99"/>
<path fill-rule="evenodd" clip-rule="evenodd" d="M31.8636 13.4197L12.6493 24.5139L12.6493 24.5139L31.8636 13.4196V13.4197ZM35.6309 37.7798V50.838L35.631 50.838V37.7798L35.6309 37.7798ZM35.6309 6.88586V19.9534L23.9607 26.6855L23.9608 26.6855L35.631 19.9534V6.88581L35.6309 6.88586ZM3.54033 24.514L31.0812 40.4127V42.9584L4.32275 27.5114V33.6712L36.4135 52.1931V37.328L14.2144 24.5138L31.0812 14.775V17.3207L18.6279 24.5146L23.9609 27.5888L36.4135 20.4054V5.53036L3.54033 24.514Z" fill="#083C5D"/>
<path fill-rule="evenodd" clip-rule="evenodd" d="M43.7705 44.3136V39.9609L55.4408 33.2193L55.4408 33.2194L43.7705 39.9609L43.7705 44.3136ZM40.0032 19.9534L62.9849 33.2193L40.0032 19.9534L40.0032 19.9534ZM43.7705 13.4196L70.529 28.8666L70.529 28.8666V24.5139L70.529 24.5139V28.8666L43.7705 13.4196V17.7723L43.7705 13.4196ZM40.0032 50.838L70.529 33.2194L70.529 33.2193L40.0032 50.838L40.0032 50.838ZM72.0942 33.2194L44.553 17.3206V14.7748L71.3115 30.2218V24.0622L39.2207 5.53036V20.4053L61.4198 33.2195L44.553 42.9583V40.4125L57.0038 33.2201L51.6739 30.1344L39.2207 37.3282V52.1931L72.0942 33.2194Z" fill="#083C5D"/>
</svg>
