<svg width="20" height="23" viewBox="0 0 20 23" fill="none" xmlns="http://www.w3.org/2000/svg">
<path d="M16.1576 14.4726C15.5823 14.4755 15.0151 14.6075 14.4977 14.8589C13.9803 15.1103 13.5259 15.4747 13.1681 15.9251L7.55047 12.4131C7.75521 11.7523 7.75521 11.0451 7.55047 10.3843L13.1681 6.87228C13.7383 7.5783 14.54 8.05973 15.4311 8.23128C16.3223 8.40283 17.2454 8.25343 18.0369 7.80955C18.8285 7.36566 19.4373 6.65595 19.7557 5.80612C20.0741 4.95629 20.0814 4.0212 19.7763 3.1665C19.4713 2.3118 18.8736 1.59265 18.089 1.13645C17.3045 0.680257 16.3839 0.516453 15.4902 0.674059C14.5964 0.831666 13.7874 1.30051 13.2062 1.99754C12.6251 2.69457 12.3094 3.57479 12.3151 4.48228C12.3187 4.82593 12.3705 5.16738 12.4688 5.49669L6.85115 9.00868C6.3552 8.38435 5.67731 7.92976 4.91144 7.70793C4.14558 7.48611 3.32967 7.50803 2.57682 7.77066C1.82397 8.03329 1.17147 8.52361 0.709756 9.17368C0.248046 9.82374 0 10.6013 0 11.3987C0 12.196 0.248046 12.9736 0.709756 13.6237C1.17147 14.2738 1.82397 14.7641 2.57682 15.0267C3.32967 15.2893 4.14558 15.3113 4.91144 15.0894C5.67731 14.8676 6.3552 14.413 6.85115 13.7887L12.4688 17.3007C12.3705 17.63 12.3187 17.9714 12.3151 18.3151C12.3151 19.075 12.5405 19.8179 12.9627 20.4498C13.3849 21.0817 13.985 21.5742 14.6871 21.865C15.3892 22.1559 16.1618 22.232 16.9072 22.0837C17.6525 21.9354 18.3372 21.5695 18.8746 21.0321C19.4119 20.4947 19.7779 19.8101 19.9262 19.0647C20.0744 18.3193 19.9983 17.5468 19.7075 16.8446C19.4167 16.1425 18.9242 15.5424 18.2923 15.1202C17.6604 14.698 16.9175 14.4726 16.1576 14.4726ZM16.1576 2.17681C16.6135 2.17681 17.0593 2.31203 17.4384 2.56535C17.8175 2.81868 18.113 3.17875 18.2875 3.60002C18.462 4.02128 18.5077 4.48484 18.4187 4.93205C18.3298 5.37927 18.1102 5.79007 17.7878 6.11249C17.4653 6.43492 17.0545 6.65449 16.6073 6.74345C16.1601 6.83241 15.6966 6.78675 15.2753 6.61225C14.854 6.43776 14.494 6.14226 14.2406 5.76313C13.9873 5.384 13.8521 4.93826 13.8521 4.48228C13.8521 3.87083 14.095 3.28443 14.5273 2.85207C14.9597 2.41971 15.5461 2.17681 16.1576 2.17681ZM3.86172 13.7042C3.40575 13.7042 2.96001 13.5689 2.58088 13.3156C2.20174 13.0623 1.90625 12.7022 1.73175 12.2809C1.55725 11.8597 1.5116 11.3961 1.60056 10.9489C1.68951 10.5017 1.90909 10.0909 2.23151 9.76847C2.55394 9.44604 2.96473 9.22647 3.41195 9.13751C3.85917 9.04856 4.32272 9.09421 4.74399 9.26871C5.16526 9.4432 5.52532 9.7387 5.77865 10.1178C6.03198 10.497 6.16719 10.9427 6.16719 11.3987C6.16719 12.0101 5.9243 12.5965 5.49194 13.0289C5.05958 13.4613 4.47317 13.7042 3.86172 13.7042ZM16.1576 20.6206C15.7016 20.6206 15.2558 20.4853 14.8767 20.232C14.4976 19.9787 14.2021 19.6186 14.0276 19.1973C13.8531 18.7761 13.8074 18.3125 13.8964 17.8653C13.9853 17.4181 14.2049 17.0073 14.5273 16.6849C14.8498 16.3624 15.2606 16.1429 15.7078 16.0539C16.155 15.965 16.6185 16.0106 17.0398 16.1851C17.4611 16.3596 17.8211 16.6551 18.0745 17.0342C18.3278 17.4134 18.463 17.8591 18.463 18.3151C18.463 18.9265 18.2201 19.5129 17.7878 19.9453C17.3554 20.3777 16.769 20.6206 16.1576 20.6206Z" fill="white"/>
</svg>
