<svg width="67" height="96" viewBox="0 0 67 96" fill="none" xmlns="http://www.w3.org/2000/svg">
<rect width="67" height="96" rx="6.47982" fill="#80ED99"/>
<path d="M20.5669 80.3826L23.0406 73.2627H24.9593L21.6293 82H19.4727L16.1586 73.2627H18.0931L20.5669 80.3826ZM30.1156 82.1427C29.291 82.1427 28.5457 81.9577 27.8797 81.5877C27.2137 81.2071 26.6904 80.6786 26.3099 80.002C25.9293 79.3149 25.739 78.522 25.739 77.6234C25.739 76.7354 25.9346 75.9479 26.3257 75.2607C26.7169 74.5736 27.2507 74.045 27.9273 73.675C28.6039 73.305 29.3597 73.12 30.1949 73.12C31.03 73.12 31.7859 73.305 32.4624 73.675C33.139 74.045 33.6729 74.5736 34.064 75.2607C34.4552 75.9479 34.6507 76.7354 34.6507 77.6234C34.6507 78.5114 34.4499 79.299 34.0482 79.9861C33.6464 80.6733 33.0967 81.2071 32.399 81.5877C31.7119 81.9577 30.9507 82.1427 30.1156 82.1427ZM30.1156 80.5729C30.5807 80.5729 31.0142 80.4619 31.4159 80.2399C31.8282 80.0179 32.1612 79.6849 32.4149 79.2409C32.6686 78.7969 32.7954 78.2577 32.7954 77.6234C32.7954 76.9891 32.6739 76.4553 32.4307 76.0219C32.1876 75.5779 31.8652 75.2449 31.4634 75.0229C31.0617 74.8009 30.6283 74.6899 30.1632 74.6899C29.698 74.6899 29.2646 74.8009 28.8629 75.0229C28.4717 75.2449 28.1599 75.5779 27.9273 76.0219C27.6947 76.4553 27.5784 76.9891 27.5784 77.6234C27.5784 78.5643 27.8163 79.2937 28.292 79.8117C28.7783 80.3191 29.3862 80.5729 30.1156 80.5729ZM38.5468 74.7374V79.5739C38.5468 79.9016 38.6208 80.1394 38.7688 80.2874C38.9273 80.4249 39.1916 80.4936 39.5616 80.4936H40.6716V82H39.2445C38.4305 82 37.8068 81.8097 37.3733 81.4291C36.9399 81.0486 36.7232 80.4301 36.7232 79.5739V74.7374H35.6925V73.2627H36.7232V71.0903H38.5468V73.2627H40.6716V74.7374H38.5468ZM50.3456 77.4173C50.3456 77.745 50.3244 78.041 50.2822 78.3053H43.6063C43.6592 79.003 43.9182 79.5633 44.3833 79.9861C44.8484 80.409 45.4193 80.6204 46.0959 80.6204C47.0684 80.6204 47.7556 80.2134 48.1573 79.3994H50.1077C49.8434 80.2029 49.3624 80.8636 48.6647 81.3816C47.9776 81.889 47.1213 82.1427 46.0959 82.1427C45.2607 82.1427 44.5102 81.9577 43.8442 81.5877C43.1887 81.2071 42.6707 80.6786 42.2902 80.002C41.9202 79.3149 41.7352 78.522 41.7352 77.6234C41.7352 76.7249 41.9149 75.9373 42.2743 75.2607C42.6443 74.5736 43.157 74.045 43.8124 73.675C44.4784 73.305 45.2396 73.12 46.0959 73.12C46.9204 73.12 47.6552 73.2997 48.3 73.6591C48.9449 74.0186 49.447 74.526 49.8064 75.1814C50.1659 75.8263 50.3456 76.5716 50.3456 77.4173ZM48.4586 76.8464C48.448 76.1804 48.2102 75.6466 47.745 75.2449C47.2799 74.8431 46.7037 74.6423 46.0166 74.6423C45.3929 74.6423 44.859 74.8431 44.415 75.2449C43.971 75.636 43.7067 76.1699 43.6222 76.8464H48.4586Z" fill="#083C5D"/>
<path d="M34.8452 20.6136C34.1889 19.7955 32.8111 19.7955 32.1548 20.6136L18.376 37.8372C18.1738 38.0907 18.0473 38.3961 18.0109 38.7183C17.9745 39.0405 18.0297 39.3665 18.1702 39.6587C18.3106 39.951 18.5307 40.1977 18.805 40.3706C19.0794 40.5434 19.3969 40.6354 19.7211 40.636H26.6106V52.6925C26.6106 53.1493 26.792 53.5874 27.115 53.9104C27.438 54.2334 27.8761 54.4148 28.3329 54.4148H38.6671C39.1239 54.4148 39.562 54.2334 39.885 53.9104C40.208 53.5874 40.3894 53.1493 40.3894 52.6925V40.636H47.2789C47.6031 40.6354 47.9206 40.5434 48.195 40.3706C48.4693 40.1977 48.6894 39.951 48.8298 39.6587C48.9703 39.3665 49.0255 39.0405 48.9891 38.7183C48.9527 38.3961 48.8262 38.0907 48.624 37.8372L34.8452 20.6136ZM38.6671 37.1913H36.9447V50.9701H30.0553V37.1913H23.3054L33.5 24.4476L43.6946 37.1913H38.6671Z" fill="#083C5D"/>
</svg>
